<?xml version="1.0" encoding="utf-8"?>
<!-- Generator: Adobe Illustrator 28.2.0, SVG Export Plug-In . SVG Version: 6.00 Build 0)  -->
<svg version="1.1" id="Layer_1" xmlns="http://www.w3.org/2000/svg" xmlns:xlink="http://www.w3.org/1999/xlink" x="0px" y="0px"
	 width="819.5px" height="79.8px" viewBox="0 0 819.5 79.8" style="enable-background:new 0 0 819.5 79.8;" xml:space="preserve">
<style type="text/css">
	.st0{fill:#231F20;}
</style>
<g>
	<g id="Group_16">
		<path id="Path_4" class="st0" d="M817.6,22.5c-6.9,5.3-7.5,15.2-8.9,21.4c-0.6-4.4-2.9-6.6-1.1-14.1c2.6-7,2-8.4,7.8-15
			c-8.2,6.6-10.6,12.3-14.6,21.6c0.6-6.2,2.8-12.2,6.4-17.3c-8.5,8.2-13.8,19.3-14.8,31.1H792c-1.1-3.1-1.8-6.4-2.1-9.7
			c-0.2-4.7-0.1-9.7,5.2-13.9c-6,3.2-10.4,8.9-12.1,15.5c-1.1-1.4-2.1-2.7-3-4.1c0.2-0.3,0.3-0.6,0.5-0.9c4.3-7.1,10.8-13.8,19.4-20
			c-8.3,4.4-15.9,9.9-22.7,16.4c-0.4-0.7-0.8-1.5-1.2-2.2c-0.2-0.4-0.4-0.8-0.6-1.3c2.5-4.5,5.7-8.6,9.4-12.1
			c-4,2.4-7.7,5.2-11.2,8.2c-2.3-5.7-3.6-11.9-3.6-18.1c-1.9,7.2-2.1,14.7-0.6,22c-4.3,4.3-7.9,9.3-10.7,14.8
			c-1.2-3.6-2-7.4-2.2-11.3c-0.3-7.1,1.2-14.2,7.8-20.7c-2.7,2-5.2,4.3-7.3,6.9c-9.5,5-16.6,10.9-21.6,17.2
			c-0.1-0.4-0.2-0.8-0.3-1.1c2.1-3,4.4-5.8,7.1-8.3c-2.6,1.6-5.1,3.4-7.5,5.2c-0.3-4.4,1-8.8,3.8-12.2c-6,5.2-8.6,10.9-9.2,16.7
			c-2.1,1.9-4,4-5.8,6.2c-1-0.5-2.1-1-3-1.6c-0.2-4.7,0-9.6,5.2-13.8c-4.5,2.4-8.1,6.1-10.2,10.7c-0.3-0.2-0.7-0.4-1-0.7
			c0.3-3.5,1.6-6.7,3.6-9.5c-2.6,2-4.9,4.3-6.8,7c-0.6-0.5-1.1-1-1.7-1.5c0.7-1.2,1.4-2.5,2.1-3.7c4.3-7.1,10.8-13.8,19.4-20
			c-9.4,5-18,11.4-25.4,19.1c-2.4-3.3-3.7-7.4-3.7-11.5c-2,4.8-1.8,10.3,0.5,15c-1.7,2-3.3,4.2-4.8,6.4c-2.1-1.7-4.2-3.3-6.2-5
			c0.6-2,1.6-3.9,2.8-5.5c-1.6,1.2-3.1,2.6-4.5,4.1c-1.7-1.4-3.3-2.8-4.9-4.3c1.1-3.9,2.9-7.5,5.3-10.7c-2.9,2.5-5.5,5.3-7.8,8.4
			c-1.1-1-2.1-2-3.2-3c2.2-4.6,4.8-9,7.8-13.2c-3.4,3.6-6.6,7.5-9.6,11.5c-0.4-0.4-0.8-0.8-1.2-1.1c0.3,0.5,0.6,1,0.9,1.5
			c-2.4,3.3-4.7,6.8-6.8,10.3c-8.1,4.2-14.5,9.1-19,14.4c-0.3-1.6-0.5-3.3-0.6-4.9c2.6-5.7,6.3-10.8,10.9-15.1
			c-3.9,2.4-7.7,5.2-11.2,8.2c0-3.4,0.4-6.9,1-10.3c-2.1,4.5-3.8,9.2-5,14c-1.9,1.9-3.7,4-5.3,6.1c-0.7-4.1-0.9-8.3-0.6-12.5
			c5.5-5.2,13-10,21.6-14.3c-7.3,2.6-14.3,5.9-21,9.8c1.2-7.8,5.3-14.9,11.3-20c-10.5,7.2-16,15.9-18.8,24.9
			c-7.2,5.4-12.4,11.3-15,17.5h-0.1c4-12.1,10.5-23.2,19-32.6c-9.7,7.9-18.1,17.2-25.1,27.6c-0.2-1.3-0.3-2.5-0.4-3.8
			c2.4-3.8,5.2-7.3,8.5-10.4c-2.8,1.7-5.4,3.6-8,5.6c0.6-2.6,1.7-5,3.2-7.1c-4.6,3.4-8.2,8.1-10.4,13.5c-1.3,1.3-2.4,2.6-3.5,3.9
			c0.4-2.9,1-5.8,2-8.6c2.7-7.4,7.1-15.2,19.5-20.4c-17,5.6-25.4,17-29.8,28c-0.1-0.6-0.2-1.2-0.2-1.8c-0.2-4.7-0.1-9.7,5.2-13.9
			c-4.2,2.3-7.7,5.8-9.9,10c0.5-2.2,1.2-4.4,2-6.5c3-7.5,9.1-14.7,18.8-20.9c-20,10.1-29.6,23.7-32.3,37.4H577
			c-1.2-5.6-0.7-11.3,3.1-16.7c-4.7,3.5-8.3,8.2-10.4,13.6c-0.2-0.8-0.5-1.7-0.7-2.5c0-0.1,0-0.2-0.1-0.3c1.5-2.9,3.3-5.6,5.5-8
			c5.6-6.4,14.3-12.3,24.5-17.3C586,23.9,575,29.9,567,36.7c-0.4-2.1-0.8-4.1-1.1-6.2c3.9-7.2,9.7-13.3,16.7-17.6
			c-6.4,3-12.3,7.2-17.3,12.2c-0.4-4.9,0-9.9,1.2-14.7c-3.1,6.3-5.2,13-6.1,20c-0.8,1-1.6,1.9-2.4,2.9c-4.2,5.3-7.9,11-10.9,17
			c0,0-2.3-13,3.3-18.9c-1.9,1.3-3.7,2.8-5.4,4.4c2.8-6.7,9-12.9,17.9-18.3c-12.3,5.6-20.8,12.8-25.6,20.5c0.2-1.2,0.5-2.4,0.7-3.6
			c2.1-8.2,6.3-15.6,12.4-21.4c-11.3,8.4-17.9,17.9-21.7,27.7v0c0-7.6,2.3-15.1,6.6-21.3c-8.5,8.2-13.8,19.3-14.8,31.1h-1.2
			c-1.2-4-2.1-8.2-2.7-12.4c-0.2-1.3-0.3-2.6-0.4-3.9c4.7-4,9.6-7.7,14.8-11c-2.8,1.5-5.7,2.9-8.4,4.4c-2.3,1.3-4.5,2.6-6.6,4
			c-0.3-7.1,0.8-14.3,3.2-21c-4.4,7.6-7.3,15.9-8.5,24.6c-5.9,4.1-11.1,8.9-15.7,14.5c0.1-4.7,1.1-9.3,2.9-13.7
			c3-7.5,9.1-14.7,18.8-20.9c-17.5,8.8-27.1,20.4-31,32.3c0.8-5.3,1.9-10.5,3.4-15.7c1.3-4.4,2.8-8.6,4.6-12.8
			c0.5-0.3,0.9-0.6,1.4-0.9c-0.4,0.2-0.8,0.4-1.2,0.7c2.5-5.7,5.6-11.1,9.1-16.1c-5.6,5.9-10.5,12.4-14.8,19.4
			c-13.3,8.3-25.9,28.7-25.9,28.7c0-0.1,0-0.1-0.1-0.2c-1.9-6.3-3-12.9-3.2-19.5c2.9-3.9,7.1-7.4,13.9-10.1c-5,1.5-9.7,3.8-13.9,6.9
			c0.1-3.1,0.4-6.3,1-9.4c-1.9,4-3.4,8.1-4.5,12.3c-4.5,4.1-8.2,8.9-11,14.3c1.1-3.2,2.4-6.4,3.8-9.5c3.9-8.3,9-16.1,15.2-22.9
			C452.6,21,443.3,31.6,436,43.5c-0.1-1.3-0.1-2.5-0.1-3.8c0-7.6,2.3-15.1,6.6-21.3c-7.4,7.1-12.3,16.4-14.2,26.5
			c-0.9-3.2-1.5-6.5-2-9.9c-1.4-9.3-0.5-18.7,2.6-27.6c-6.9,11.8-10,25.3-9,38.9c-0.1-0.2-0.3-0.4-0.5-0.7c-4.1-6.2-7.7-12.5-9.8-19
			c0.1-0.2,0.2-0.4,0.4-0.5c-0.1,0.1-0.3,0.2-0.4,0.3c-0.7-2.4-1.2-4.8-1.5-7.3c3.1-2.9,6.5-5.5,10.2-7.7
			c-14.6,6.6-23.8,15.5-27.9,24.8c0.6-6.2,2.8-12.2,6.4-17.3c-8.5,8.2-13.8,19.3-14.8,31.1h-0.3c-1.1-3.1-1.8-6.4-2.1-9.7
			c-0.2-4.7-0.1-9.7,5.2-13.9c-6,3.2-10.4,8.9-12.1,15.5c-1.1-1.4-2.1-2.7-3-4.1c0.2-0.3,0.3-0.6,0.5-0.9c4.4-7.1,10.8-13.8,19.4-20
			c-8.2,4.4-15.9,9.9-22.7,16.4c-0.4-0.7-0.8-1.5-1.2-2.2c-0.2-0.4-0.4-0.8-0.6-1.3c2.5-4.5,5.7-8.6,9.4-12.1
			c-4,2.4-7.7,5.2-11.2,8.2c-2.3-5.7-3.6-11.9-3.6-18.1c-1.9,7.2-2.1,14.7-0.6,22c-4.3,4.3-7.9,9.3-10.7,14.8
			c-1.2-3.6-2-7.4-2.2-11.3c-0.3-7.1,1.2-14.2,7.8-20.7c-2.7,2-5.2,4.3-7.3,6.9c-9.5,5-16.6,10.9-21.6,17.2
			c-0.1-0.4-0.2-0.8-0.3-1.1c2.1-3,4.4-5.8,7.1-8.3c-2.6,1.6-5.1,3.4-7.5,5.2c-0.3-4.4,1-8.8,3.8-12.2c-6,5.2-8.6,10.9-9.2,16.7
			c-2.1,1.9-4,4-5.8,6.2c-1-0.5-2.1-1-3-1.6c-0.2-4.7,0-9.6,5.2-13.8c-4.5,2.4-8.1,6.1-10.2,10.7c-0.3-0.2-0.7-0.4-1-0.7
			c0.3-3.5,1.6-6.7,3.6-9.5c-2.6,2-4.9,4.3-6.9,7c-0.6-0.5-1.1-1-1.7-1.5c0.7-1.2,1.4-2.5,2.1-3.7c4.3-7.1,10.8-13.8,19.4-20
			c-9.4,5-18,11.4-25.4,19.1c-2.4-3.3-3.7-7.4-3.7-11.5c-2,4.8-1.8,10.3,0.5,15c-1.7,2-3.3,4.2-4.8,6.4c-2.1-1.7-4.2-3.3-6.2-5
			c0.6-2,1.6-3.9,2.8-5.5c-1.6,1.2-3.1,2.6-4.5,4.1c-1.7-1.4-3.3-2.8-4.9-4.3c1.1-3.9,2.9-7.5,5.3-10.7c-2.9,2.5-5.5,5.3-7.8,8.4
			c-1.1-1-2.1-2-3.2-3c2.2-4.6,4.8-9,7.8-13.2c-3.4,3.6-6.6,7.5-9.6,11.5c-0.4-0.4-0.8-0.8-1.2-1.1c0.3,0.5,0.6,1,0.9,1.5
			c-2.4,3.3-4.7,6.8-6.8,10.3c-8.1,4.2-14.5,9.1-19,14.4c-0.3-1.6-0.5-3.3-0.6-4.9c2.6-5.7,6.3-10.8,10.9-15.1
			c-3.9,2.4-7.7,5.2-11.2,8.2c0-3.4,0.4-6.9,1-10.3c-2.1,4.5-3.8,9.2-5,14c-1.9,1.9-3.7,4-5.3,6.1c-0.7-4.1-0.9-8.3-0.6-12.5
			c5.5-5.2,13-10,21.6-14.3c-7.3,2.6-14.3,5.9-21,9.8c1.2-7.8,5.3-14.9,11.3-20c-10.5,7.2-16,15.9-18.8,24.9
			c-7.2,5.4-12.4,11.3-15,17.5h-0.1c4-12.1,10.5-23.2,19-32.6c-9.7,7.9-18.1,17.2-25.1,27.6c-0.2-1.3-0.3-2.5-0.4-3.8
			c2.4-3.8,5.2-7.3,8.5-10.4c-2.8,1.7-5.4,3.6-8,5.6c0.6-2.6,1.7-5,3.2-7.1c-4.6,3.4-8.2,8.1-10.4,13.5c-1.3,1.3-2.4,2.6-3.5,3.9
			c0.4-2.9,1-5.8,2-8.6c2.7-7.4,7.1-15.2,19.5-20.4c-17,5.6-25.4,17-29.8,28c-0.1-0.6-0.2-1.2-0.2-1.8c-0.2-4.7-0.1-9.7,5.2-13.9
			c-4.2,2.3-7.7,5.8-9.9,10c0.5-2.2,1.2-4.4,2-6.5c3-7.5,9.1-14.7,18.8-20.9c-20,10.1-29.6,23.7-32.3,37.4h-0.2
			c-1.2-5.6-0.7-11.3,3.1-16.7c-4.7,3.5-8.3,8.2-10.4,13.6c-0.2-0.8-0.5-1.7-0.8-2.5c0-0.1,0-0.2-0.1-0.3c1.5-2.9,3.3-5.6,5.5-8
			c5.6-6.4,14.3-12.3,24.5-17.3c-12.9,4.7-23.9,10.7-31.9,17.5c-0.4-2.1-0.8-4.1-1.1-6.2c3.9-7.2,9.7-13.3,16.7-17.6
			C166,15.9,160.1,20,155.1,25c-0.4-4.9,0-9.9,1.2-14.7c-3.1,6.3-5.2,13-6.1,20c-0.8,1-1.6,1.9-2.4,2.9c-4.2,5.3-7.9,11-10.9,17
			c0,0-2.3-13,3.3-18.9c-1.9,1.3-3.7,2.8-5.4,4.4c2.8-6.7,9-12.9,17.9-18.3C140.3,23,131.8,30.2,127,37.9c0.2-1.2,0.5-2.4,0.7-3.6
			c2.1-8.2,6.3-15.6,12.4-21.4c-11.3,8.4-17.9,17.9-21.7,27.7v0c0-7.6,2.3-15.1,6.6-21.3c-8.5,8.2-13.8,19.3-14.8,31.1h-1.2
			c-1.2-4-2.1-8.2-2.7-12.4c-0.2-1.3-0.3-2.6-0.4-3.9c4.7-4,9.6-7.7,14.8-11c-2.8,1.5-5.7,2.9-8.4,4.4c-2.3,1.3-4.5,2.6-6.6,4
			c-0.3-7.1,0.8-14.3,3.2-21c-4.4,7.6-7.3,15.9-8.5,24.6c-5.9,4.1-11.1,8.9-15.7,14.5c0.1-4.7,1.1-9.3,2.9-13.7
			c3-7.5,9.1-14.7,18.8-20.9c-17.5,8.8-27.1,20.4-31,32.3c0.8-5.3,1.9-10.5,3.4-15.7c1.3-4.4,2.8-8.6,4.6-12.8
			c0.5-0.3,0.9-0.6,1.4-0.9c-0.4,0.2-0.8,0.4-1.2,0.7c2.5-5.7,5.6-11.1,9.1-16.1c-5.6,5.9-10.5,12.4-14.8,19.4
			C64.6,29.8,52,50.2,52,50.2c0-0.1,0-0.1-0.1-0.2c-1.9-6.3-3-12.9-3.2-19.5c2.9-3.9,7.1-7.4,13.9-10.1c-5,1.5-9.7,3.8-13.9,6.9
			c0.1-3.1,0.4-6.3,1-9.4c-1.9,4-3.4,8.1-4.5,12.3c-4.5,4.1-8.2,8.9-11,14.3c1.1-3.2,2.4-6.4,3.8-9.5c3.9-8.3,9-16.1,15.2-22.9
			C42.3,21,33.1,31.6,25.8,43.5c-0.1-1.3-0.1-2.5-0.1-3.8c0-7.6,2.3-15.1,6.6-21.4c-7.4,7.1-12.3,16.4-14.2,26.5
			c-0.9-3.2-1.5-6.5-2-9.9c-1.4-9.3-0.5-18.7,2.6-27.6c-6.9,11.8-10,25.3-9,38.9c-0.1-0.2-0.3-0.4-0.5-0.7c-5.8-8.9,0.9-22.6,0.4-32
			C6.9,24.4-2.5,39.7,1.4,50.2H0v29.6h819.5V50.2h0C816.1,42.4,812.1,30.1,817.6,22.5 M42.7,50.2h-1.8c0.5-3,1.2-5.9,2.2-8.7
			C42.8,44.4,42.7,47.3,42.7,50.2 M66.1,38.6c2.3-5.4,5.8-10.3,10.1-14.2c-4.9,8.5-12.9,25.9-12.9,25.9
			C63.6,46.2,64.6,42.3,66.1,38.6 M97.1,43.5c0.9-1.2,1.8-2.3,2.8-3.5c-0.2,3.4-0.2,6.8,0.1,10.2C100,50.2,96.4,45.7,97.1,43.5
			 M221,50.2h-1.4c0.3-1.9,0.9-3.8,1.6-5.6C221.1,46.5,221,48.4,221,50.2 M249.1,50.2c1.3-5.1,4.4-10,9.2-14.6
			C255.6,40.4,249.1,50.2,249.1,50.2 M260.4,49.4c0.7-3.4,1.4-6.8,2.4-10.2c1.5-5.1,3.3-10.1,5.6-14.9c0.8,1.2,1.6,2.5,2.4,3.7
			C266,34.9,263.1,42.2,260.4,49.4 M272.1,47.6c0-1.5,0.1-3.1,0.2-4.6c0.3-3.6,0.8-7.2,1.4-10.8c1,1.4,2,2.7,3,4.1
			C274.5,39.7,272.9,43.6,272.1,47.6 M282,49.3c-1-2.7-1.5-5.6-1.7-8.5c1.2,1.4,2.4,2.8,3.7,4.2C283.3,46.4,282.6,47.9,282,49.3
			 M296.2,45.7c-0.4-0.3-0.9-0.6-1.3-0.9c0.5-1.8,1.1-3.6,1.8-5.3c0.4,0.4,0.8,0.9,1.2,1.3C297.2,42.3,296.7,44,296.2,45.7
			 M339.1,31.1c-5.1,4.5-8.2,10.7-8.7,17.5c-0.5-0.9-1.1-1.8-1.6-2.6c-0.3-0.5-0.5-1-0.8-1.5c0.4-1.5,0.9-3.1,1.5-4.5
			c2.8-7,8.3-13.7,16.8-19.6c-7.4,9.3-8.2,19.8-6.8,29.7C336.7,43.8,335.8,37.2,339.1,31.1 M361.4,39.5c0.1-0.4,0.2-0.7,0.3-1.1
			c0.1,0.2,0.1,0.3,0.2,0.5C361.7,39,361.6,39.3,361.4,39.5 M400,30.9c1.7-4.3,4.4-8.1,7.8-11.3c-0.7,3.1-0.9,6.2-0.9,9.3
			c-4.3,4-7.2,9.2-8.6,14.9C397.8,39.5,398.4,35,400,30.9 M409.3,50.2c-2.6-5.9-4-12.1-2.2-18.1c0.7,6.2,2.2,12.3,4.5,18.1H409.3z
			 M452.9,50.2h-1.8c0.5-3,1.2-5.9,2.2-8.7C453,44.4,452.9,47.3,452.9,50.2 M476.3,38.6c2.3-5.4,5.8-10.3,10.1-14.2
			c-5,8.5-12.9,25.9-12.9,25.9C473.9,46.2,474.8,42.3,476.3,38.6 M507.3,43.5c0.9-1.2,1.8-2.3,2.8-3.5c-0.2,3.4-0.2,6.8,0.1,10.2
			C510.3,50.2,506.6,45.7,507.3,43.5 M631.2,50.2h-1.4c0.3-1.9,0.9-3.8,1.6-5.6C631.3,46.5,631.3,48.4,631.2,50.2 M659.3,50.2
			c1.3-5.1,4.4-10,9.2-14.6C665.9,40.4,659.3,50.2,659.3,50.2 M670.6,49.4c0.7-3.4,1.4-6.8,2.4-10.2c1.5-5.1,3.3-10.1,5.6-14.9
			c0.8,1.2,1.6,2.5,2.4,3.7C676.2,34.9,673.4,42.2,670.6,49.4 M682.4,47.6c0-1.5,0.1-3.1,0.2-4.6c0.3-3.6,0.8-7.2,1.4-10.8
			c1,1.4,2,2.7,3,4.1C684.7,39.7,683.1,43.6,682.4,47.6 M692.3,49.3c-1-2.7-1.5-5.6-1.7-8.5c1.2,1.4,2.4,2.8,3.7,4.2
			C693.6,46.4,692.9,47.9,692.3,49.3 M706.5,45.7c-0.4-0.3-0.9-0.6-1.3-0.9c0.5-1.8,1.1-3.6,1.8-5.3c0.4,0.4,0.8,0.9,1.2,1.3
			C707.5,42.3,706.9,44,706.5,45.7 M749.4,31.1c-5.1,4.5-8.2,10.7-8.7,17.5c-0.5-0.9-1.1-1.8-1.6-2.6c-0.3-0.5-0.5-1-0.8-1.5
			c0.4-1.5,0.9-3.1,1.5-4.5c2.8-7,8.3-13.7,16.8-19.6c-7.4,9.3-8.2,19.8-6.8,29.7C747,43.8,746,37.2,749.4,31.1 M771.7,39.5
			c0.1-0.4,0.2-0.7,0.3-1.1c0.1,0.2,0.1,0.3,0.2,0.5C772,39,771.8,39.3,771.7,39.5"/>
	</g>
</g>
</svg>
