<?xml version="1.0" encoding="utf-8"?>
<!-- Generator: Adobe Illustrator 28.2.0, SVG Export Plug-In . SVG Version: 6.00 Build 0)  -->
<svg version="1.1" id="Layer_1" xmlns="http://www.w3.org/2000/svg" xmlns:xlink="http://www.w3.org/1999/xlink" x="0px" y="0px"
	 width="802.1px" height="234.9px" viewBox="0 0 802.1 234.9" style="enable-background:new 0 0 802.1 234.9;" xml:space="preserve"
	>
<style type="text/css">
	.st0{fill:url(#SVGID_1_);}
</style>
<linearGradient id="SVGID_1_" gradientUnits="userSpaceOnUse" x1="401.1282" y1="208.379" x2="369.472" y2="-46.0008">
	<stop  offset="0.4623" style="stop-color:#565759"/>
	<stop  offset="0.7378" style="stop-color:#141414"/>
</linearGradient>
<path class="st0" d="M726.8,48.7c-20.9-22.1-55,8.8-74.4,13.8c-19.4,5.1-35.1-7.4-47.1-12.9c-12-5.5-34,4.1-44,8.8
	c-9.9,4.6-32.5,6.9-57.6-6c-25.1-12.9-46.9-15.6-46.9-15.6c-10.1-1.1-18.6-2.5-22.1-4.5c-0.7-0.4-1.5-0.6-2.3-0.6
	c-4.6,0-9.5,6.9-17.9,13.7v0c-10.8,8.8-27.3,17.7-56.2,11.8c-55.2-11.2-80.7,21.2-146,33.7c-38.9,7.4-40.5-16.4-57.8-28.9
	c0,0-27.2-46.1-71.7-6.9C54.9,79.7,14.6,121.9,0,174v60.9h802.1v-52.1C797.4,108.7,742.2,65.1,726.8,48.7z"/>
</svg>
