<?xml version="1.0" encoding="utf-8"?>
<!-- Generator: Adobe Illustrator 28.2.0, SVG Export Plug-In . SVG Version: 6.00 Build 0)  -->
<svg version="1.1" id="Layer_1" xmlns="http://www.w3.org/2000/svg" xmlns:xlink="http://www.w3.org/1999/xlink" x="0px" y="0px"
	 width="740.3px" height="243px" viewBox="0 0 740.3 243" style="enable-background:new 0 0 740.3 243;" xml:space="preserve">
<style type="text/css">
	.st0{fill:url(#SVGID_1_);}
</style>
<linearGradient id="SVGID_1_" gradientUnits="userSpaceOnUse" x1="356.7622" y1="210.1005" x2="346.1802" y2="298.2842" gradientTransform="matrix(1 0 0 -1 0 318)">
	<stop  offset="0.5401" style="stop-color:#808285"/>
	<stop  offset="1" style="stop-color:#414042"/>
</linearGradient>
<path class="st0" d="M740,202.8c0,0,0.3-87.7-48-117c-24.7-17.6-69.7-35.7-90.8-43.1c-21.2-7.4-53.3-31-60.4-36.9
	c-1.1-1-2.4-1.5-3.9-1.5c-5.7,0-11.1,9.1-15.1,12.9c-4.8,4.7-15,12.9-22.9,9.8s-23.2-9-23.2-9c-11.7-1.9-27.6-3.2-34.2,1.5
	c-11.2,7.9-20.1,0-37.9-6s-23.1,1.3-40.2,8.6s-18.6,15.9-35,7.3s-32.7-9.3-48.3-10.6S266,2.9,261.5,6.2s-11.3,14.7-13.6,14
	c-2.2-0.7-11.8-0.9-11.8-0.9s-9,10.7-18.6,12.7c-9.7,2-7.3-9.2-7.3-9.2l-7.4-4l-97.3,56.5C88.1,85.4,72.4,98.2,59,113.2L0,179.3
	v63.9l740.6-0.3L740,202.8z"/>
</svg>
